<svg width="21" height="20" viewBox="0 0 21 20" fill="none" xmlns="http://www.w3.org/2000/svg">
<path fill-rule="evenodd" clip-rule="evenodd" d="M18.832 9.99984C18.832 10.1812 18.7582 10.3547 18.6274 10.4804L14.2941 14.6471C14.0287 14.9023 13.6067 14.894 13.3515 14.6286C13.0963 14.3632 13.1046 13.9411 13.37 13.6859L16.5102 10.6665L2.83268 10.6665C2.46449 10.6665 2.16602 10.368 2.16602 9.99984C2.16602 9.63165 2.46449 9.33317 2.83268 9.33317L16.5102 9.33317L13.37 6.31373C13.1046 6.05853 13.0963 5.6365 13.3515 5.3711C13.6067 5.1057 14.0287 5.09742 14.2941 5.35262L18.6274 9.51928C18.7582 9.64497 18.832 9.81849 18.832 9.99984Z" fill="#33363D"/>
</svg>
