<svg width="24" height="24" viewBox="0 0 24 24" fill="none" xmlns="http://www.w3.org/2000/svg">
<g clip-path="url(#clip0_440_7822)">
<path d="M12 4.5C12 4.5 18.254 4.49975 19.8135 4.94727C20.6737 5.19403 21.3525 5.92006 21.582 6.8418C22.0002 8.51357 22 12 22 12C22 12.001 22.0002 15.4879 21.582 17.1582C21.3525 18.0799 20.6737 18.806 19.8135 19.0527C18.254 19.5002 12 19.5 12 19.5C11.9984 19.5 5.74694 19.5002 4.18652 19.0527C3.32632 18.806 2.64753 18.0799 2.41797 17.1582C1.99985 15.4867 2 12.001 2 12C2 12 1.99979 8.51357 2.41797 6.8418C2.64753 5.92006 3.32632 5.19403 4.18652 4.94727C5.7458 4.49981 11.9984 4.5 12 4.5ZM10 14.5L15 12L10 9.5V14.5Z" fill="#33363D"/>
</g>
<defs>
<clipPath id="clip0_440_7822">
<rect width="24" height="24" fill="white"/>
</clipPath>
</defs>
</svg>
