<svg width="20" height="20" viewBox="0 0 20 20" fill="none" xmlns="http://www.w3.org/2000/svg">
<path d="M15.5273 3.52881C15.7876 3.26869 16.2094 3.2687 16.4697 3.52881C16.7301 3.78915 16.7301 4.21181 16.4697 4.47217L10.9424 9.99854L16.4736 15.5298C16.7336 15.79 16.7335 16.2119 16.4736 16.4722C16.2133 16.7325 15.7906 16.7325 15.5303 16.4722L10 10.9419L4.46973 16.4722C4.20938 16.7325 3.7877 16.7325 3.52734 16.4722C3.26706 16.2118 3.26703 15.7901 3.52734 15.5298L9.05664 9.99854L3.53027 4.47217C3.26994 4.21181 3.26993 3.78915 3.53027 3.52881C3.79063 3.26847 4.21329 3.26845 4.47363 3.52881L10 9.05518L15.5273 3.52881Z" fill="white"/>
</svg>
