<svg width="20" height="20" viewBox="0 0 20 20" fill="none" xmlns="http://www.w3.org/2000/svg">
<path d="M17.498 14.334C17.8662 14.334 18.165 14.6319 18.165 15C18.165 15.3682 17.8662 15.667 17.498 15.667H2.49805C2.13001 15.6668 1.83203 15.3681 1.83203 15C1.83212 14.632 2.13006 14.3342 2.49805 14.334H17.498ZM17.498 9.33398C17.8662 9.33398 18.165 9.63188 18.165 10C18.165 10.3682 17.8662 10.667 17.498 10.667H2.49805C2.13001 10.6668 1.83203 10.3681 1.83203 10C1.83212 9.63199 2.13006 9.33416 2.49805 9.33398H17.498ZM17.498 4.33398C17.8662 4.33398 18.165 4.63188 18.165 5C18.165 5.36819 17.8662 5.66699 17.498 5.66699H2.49805C2.13001 5.66682 1.83203 5.36808 1.83203 5C1.83212 4.63199 2.13006 4.33416 2.49805 4.33398H17.498Z" fill="#33363D"/>
</svg>
