<svg width="32" height="32" viewBox="0 0 32 32" fill="none" xmlns="http://www.w3.org/2000/svg">
<path d="M18.3246 3.51152L28.362 10.0358C28.7167 10.2663 28.894 10.3816 29.0225 10.5354C29.1362 10.6715 29.2217 10.8289 29.2738 10.9984C29.3327 11.19 29.3327 11.4015 29.3327 11.8245V21.6001C29.3327 23.8403 29.3327 24.9604 28.8967 25.816C28.5132 26.5687 27.9013 27.1806 27.1486 27.5641C26.293 28.0001 25.1729 28.0001 22.9327 28.0001H9.06602C6.82581 28.0001 5.7057 28.0001 4.85005 27.5641C4.09741 27.1806 3.48548 26.5687 3.10199 25.816C2.66602 24.9604 2.66602 23.8403 2.66602 21.6001V11.8245C2.66602 11.4015 2.66602 11.19 2.72491 10.9984C2.77704 10.8289 2.86248 10.6715 2.97621 10.5354C3.1047 10.3816 3.28203 10.2663 3.63671 10.0358L13.6741 3.51152M18.3246 3.51152C17.483 2.96444 17.0621 2.6909 16.6087 2.58447C16.2079 2.4904 15.7908 2.4904 15.39 2.58447C14.9366 2.6909 14.5157 2.96444 13.6741 3.51152M18.3246 3.51152L26.5809 8.87807C27.498 9.47421 27.9566 9.77228 28.1154 10.1503C28.2542 10.4806 28.2542 10.8529 28.1154 11.1832C27.9566 11.5612 27.498 11.8593 26.5809 12.4554L18.3246 17.822C17.483 18.3691 17.0621 18.6426 16.6087 18.749C16.2079 18.8431 15.7908 18.8431 15.39 18.749C14.9366 18.6426 14.5157 18.3691 13.6741 17.822L5.41783 12.4554C4.5007 11.8593 4.04213 11.5612 3.88331 11.1832C3.74452 10.8529 3.74452 10.4806 3.88331 10.1503C4.04213 9.77228 4.5007 9.47421 5.41783 8.87807L13.6741 3.51152M28.666 25.3334L19.8089 17.3334M12.1898 17.3334L3.33268 25.3334" stroke="#33363D" stroke-width="1.6" stroke-linecap="round" stroke-linejoin="round"/>
</svg>
