<svg width="20" height="20" viewBox="0 0 20 20" fill="none" xmlns="http://www.w3.org/2000/svg">
<path fill-rule="evenodd" clip-rule="evenodd" d="M18.334 10.0001C18.334 10.1814 18.2601 10.3549 18.1294 10.4806L13.7961 14.6473C13.5307 14.9025 13.1086 14.8942 12.8534 14.6288C12.5982 14.3634 12.6065 13.9414 12.8719 13.6862L16.0121 10.6667L2.33464 10.6667C1.96645 10.6667 1.66797 10.3683 1.66797 10.0001C1.66797 9.63189 1.96645 9.33342 2.33464 9.33342L16.0121 9.33341L12.8719 6.31397C12.6065 6.05877 12.5982 5.63675 12.8534 5.37134C13.1086 5.10594 13.5307 5.09766 13.7961 5.35286L18.1294 9.51953C18.2601 9.64522 18.334 9.81874 18.334 10.0001Z" fill="#33363D"/>
</svg>
