<svg width="24" height="24" viewBox="0 0 24 24" fill="none" xmlns="http://www.w3.org/2000/svg">
<path d="M18.6308 4.23421C18.9432 3.92199 19.4493 3.92187 19.7617 4.23421C20.074 4.54656 20.0739 5.05263 19.7617 5.36507L13.1288 11.9979L19.7656 18.6346C20.078 18.947 20.078 19.454 19.7656 19.7664C19.4532 20.0787 18.9471 20.0786 18.6347 19.7664L11.998 13.1287L5.36127 19.7664C5.04885 20.0786 4.54275 20.0787 4.23041 19.7664C3.91798 19.454 3.918 18.947 4.23041 18.6346L10.8662 11.9979L4.23431 5.36507C3.92209 5.05263 3.92196 4.54656 4.23431 4.23421C4.54667 3.92187 5.05275 3.92199 5.36517 4.23421L11.998 10.867L18.6308 4.23421Z" fill="#33363D"/>
</svg>
