<svg width="32" height="32" viewBox="0 0 32 32" fill="none" xmlns="http://www.w3.org/2000/svg">
<rect width="32" height="32" rx="10.1031" fill="url(#paint0_linear_296_3900)"/>
<path d="M7.02813 15.8516C6.99239 15.8741 6.99035 15.9154 7.02405 15.943L10.1097 18.4435L10.9941 13.3411L7.02813 15.8516Z" fill="white"/>
<path d="M25.2982 13.3396H24.518C24.4777 13.3396 24.4149 13.3584 24.3786 13.381L20.4678 15.8526C20.4315 15.8752 20.43 15.9165 20.4637 15.9434L23.4978 18.3932C23.5315 18.4201 23.5923 18.4427 23.6331 18.4427H24.4128C24.4532 18.4427 24.4588 18.4201 24.4256 18.3932L21.3287 15.8933L25.3059 13.3797C25.3421 13.3572 25.3381 13.3384 25.2977 13.3384L25.2982 13.3396Z" fill="white"/>
<path d="M23.6275 13.3398H18.192L17.3086 18.4441H22.7436C22.784 18.4441 22.7896 18.4216 22.7559 18.3946L19.6646 15.8954L23.6362 13.3818C23.6724 13.3593 23.6684 13.3405 23.628 13.3405L23.6275 13.3398Z" fill="white"/>
<path d="M26.9678 13.3396H26.1875C26.1467 13.3396 26.0844 13.3584 26.0481 13.381L22.1373 15.8526C22.1016 15.8752 22.1 15.9165 22.1332 15.9434L25.1673 18.3932C25.201 18.4201 25.2623 18.4427 25.3026 18.4427H26.0829C26.1232 18.4427 26.1288 18.4201 26.0951 18.3932L22.9982 15.8933L26.9754 13.3797C27.0117 13.3572 27.0081 13.3384 26.9673 13.3384L26.9678 13.3396Z" fill="white"/>
<path d="M23.3855 10H10.5883C9.87395 10 9.37406 10.5512 9.2561 11.2327C9.19126 11.6066 9.30717 11.9392 9.54205 12.1672L14.1402 15.891L14.1438 15.8885V15.891L23.3941 10.0413C23.4299 10.0188 23.4268 10 23.386 10H23.3855Z" fill="white"/>
<path d="M14.1443 15.8909L21.3558 21.733C21.3895 21.7599 21.3844 21.7825 21.3435 21.7825H8.54639C7.83152 21.7825 7.52311 21.2307 7.64208 20.5504C7.70693 20.1759 7.93773 19.8426 8.25125 19.6159L14.1402 15.8909L14.1433 15.8928L14.1443 15.8909Z" fill="white"/>
<defs>
<linearGradient id="paint0_linear_296_3900" x1="16" y1="0" x2="16" y2="32" gradientUnits="userSpaceOnUse">
<stop stop-color="#14181F"/>
<stop offset="1" stop-color="#4E5968"/>
</linearGradient>
</defs>
</svg>
