<svg width="16" height="17" viewBox="0 0 16 17" fill="none" xmlns="http://www.w3.org/2000/svg">
<path d="M7.99902 1.83301C11.6809 1.83301 14.666 4.81813 14.666 8.5C14.666 12.1819 11.6809 15.167 7.99902 15.167C4.31712 15.167 1.33203 12.1819 1.33203 8.5C1.33203 4.81813 4.31712 1.83301 7.99902 1.83301ZM7.99902 2.90039C4.90623 2.90039 2.39941 5.40723 2.39941 8.5C2.39942 11.5928 4.90623 14.0996 7.99902 14.0996C11.0918 14.0996 13.5986 11.5928 13.5986 8.5C13.5986 5.40724 11.0918 2.90039 7.99902 2.90039ZM8.5332 7.4541C8.64351 7.45428 8.73242 7.54395 8.73242 7.6543V10.8955H9.13281C9.24302 10.8958 9.33196 10.9855 9.33203 11.0957V11.4961C9.33189 11.6063 9.24297 11.696 9.13281 11.6963H6.86523C6.75507 11.696 6.66616 11.6063 6.66602 11.4961V11.0957C6.66609 10.9855 6.75503 10.8958 6.86523 10.8955H7.5332V8.4541C7.5332 8.34369 7.44341 8.25398 7.33301 8.25391H6.99805C6.8878 8.25366 6.79883 8.16402 6.79883 8.05371V7.6543C6.79883 7.54399 6.8878 7.45435 6.99805 7.4541H8.5332ZM7.93164 5.19434C8.37347 5.19434 8.73145 5.55231 8.73145 5.99414C8.73137 6.43591 8.37342 6.79395 7.93164 6.79395C7.48995 6.79384 7.13191 6.43584 7.13184 5.99414C7.13184 5.55238 7.4899 5.19444 7.93164 5.19434Z" fill="white"/>
</svg>
