<svg width="18" height="18" viewBox="0 0 18 18" fill="none" xmlns="http://www.w3.org/2000/svg">
<path d="M0.667969 8.99967C0.667969 13.602 4.39893 17.333 9.0013 17.333V17.333C13.6037 17.333 17.3346 13.602 17.3346 8.99967V8.99967C17.3346 4.3973 13.6037 0.66634 9.0013 0.66634V0.66634C4.39893 0.66634 0.667969 4.3973 0.667969 8.99967V8.99967Z" fill="#DE3412"/>
<path d="M11.6517 11.2347L9 13.8863L6.34835 11.2347C4.88388 9.77018 4.88388 7.39582 6.34835 5.93136C7.81282 4.46689 10.1872 4.46689 11.6517 5.93136C13.1161 7.39582 13.1161 9.77018 11.6517 11.2347ZM9 9.41634C9.46025 9.41634 9.83333 9.04326 9.83333 8.58301C9.83333 8.12277 9.46025 7.74967 9 7.74967C8.53975 7.74967 8.16667 8.12277 8.16667 8.58301C8.16667 9.04326 8.53975 9.41634 9 9.41634Z" fill="white"/>
</svg>
