<svg width="20" height="20" viewBox="0 0 20 20" fill="none" xmlns="http://www.w3.org/2000/svg">
<path d="M9.08301 2.00024C12.9949 2.00024 16.1668 5.17138 16.167 9.08325C16.167 10.7988 15.5557 12.3713 14.541 13.5969L17.3066 16.3616C17.567 16.6219 17.567 17.0446 17.3066 17.3049C17.0463 17.5652 16.6236 17.5653 16.3633 17.3049L13.5986 14.5393C12.3727 15.5551 10.7995 16.1672 9.08301 16.1672C5.17114 16.1671 2 12.9952 2 9.08325C2.00018 5.17149 5.17125 2.00042 9.08301 2.00024ZM9.08301 3.33325C5.90763 3.33343 3.33318 5.90787 3.33301 9.08325C3.33301 12.2588 5.90752 14.8331 9.08301 14.8333C10.5993 14.8333 11.9775 14.2454 13.0049 13.2864C13.0356 13.2274 13.0735 13.1709 13.123 13.1213C13.1726 13.0718 13.2291 13.0339 13.2881 13.0032C14.246 11.976 14.833 10.5985 14.833 9.08325C14.8328 5.90776 12.2585 3.33325 9.08301 3.33325Z" fill="#33363D"/>
</svg>
