<svg width="32" height="32" viewBox="0 0 32 32" fill="none" xmlns="http://www.w3.org/2000/svg">
<path d="M6.66667 11.9999V22.6666M12.6667 11.9999V22.6666M19.3333 11.9999V22.6666M25.3333 11.9999V22.6666M4 24.7999L4 25.8666C4 26.6133 4 26.9867 4.14532 27.2719C4.27316 27.5228 4.47713 27.7268 4.72801 27.8546C5.01323 27.9999 5.3866 27.9999 6.13333 27.9999H25.8667C26.6134 27.9999 26.9868 27.9999 27.272 27.8546C27.5229 27.7268 27.7268 27.5228 27.8547 27.2719C28 26.9867 28 26.6133 28 25.8666V24.7999C28 24.0532 28 23.6798 27.8547 23.3946C27.7268 23.1437 27.5229 22.9398 27.272 22.8119C26.9868 22.6666 26.6134 22.6666 25.8667 22.6666H6.13333C5.3866 22.6666 5.01323 22.6666 4.72801 22.8119C4.47713 22.9398 4.27316 23.1437 4.14532 23.3946C4 23.6798 4 24.0532 4 24.7999ZM15.5372 4.10279L5.67055 6.29538C5.07447 6.42784 4.77643 6.49407 4.55395 6.65435C4.35772 6.79572 4.20364 6.98781 4.1082 7.21003C4 7.46198 4 7.76729 4 8.37791L4 9.86661C4 10.6133 4 10.9867 4.14532 11.2719C4.27316 11.5228 4.47713 11.7268 4.72801 11.8546C5.01323 11.9999 5.3866 11.9999 6.13333 11.9999H25.8667C26.6134 11.9999 26.9868 11.9999 27.272 11.8546C27.5229 11.7268 27.7268 11.5228 27.8547 11.2719C28 10.9867 28 10.6133 28 9.86661V8.37791C28 7.76729 28 7.46198 27.8918 7.21003C27.7964 6.98781 27.6423 6.79572 27.446 6.65435C27.2236 6.49407 26.9255 6.42784 26.3295 6.29538L16.4628 4.10279C16.2901 4.06441 16.2037 4.04522 16.1165 4.03757C16.039 4.03077 15.961 4.03077 15.8835 4.03757C15.7963 4.04522 15.7099 4.06441 15.5372 4.10279Z" stroke="#33363D" stroke-width="1.6" stroke-linecap="round" stroke-linejoin="round"/>
</svg>
