<svg width="16" height="16" viewBox="0 0 16 16" fill="none" xmlns="http://www.w3.org/2000/svg">
<path d="M7.99902 1.33301C11.6809 1.33301 14.666 4.31813 14.666 8C14.666 11.6819 11.6809 14.667 7.99902 14.667C4.31712 14.667 1.33203 11.6819 1.33203 8C1.33203 4.31813 4.31712 1.33301 7.99902 1.33301ZM7.99902 2.40039C4.90623 2.40039 2.39941 4.90723 2.39941 8C2.39942 11.0928 4.90623 13.5996 7.99902 13.5996C11.0918 13.5996 13.5986 11.0928 13.5986 8C13.5986 4.90724 11.0918 2.40039 7.99902 2.40039ZM8.5332 6.9541C8.64351 6.95428 8.73242 7.04395 8.73242 7.1543V10.3955H9.13281C9.24302 10.3958 9.33196 10.4855 9.33203 10.5957V10.9961C9.33189 11.1063 9.24297 11.196 9.13281 11.1963H6.86523C6.75507 11.196 6.66616 11.1063 6.66602 10.9961V10.5957C6.66609 10.4855 6.75503 10.3958 6.86523 10.3955H7.5332V7.9541C7.5332 7.84369 7.44341 7.75398 7.33301 7.75391H6.99805C6.8878 7.75366 6.79883 7.66402 6.79883 7.55371V7.1543C6.79883 7.04399 6.8878 6.95435 6.99805 6.9541H8.5332ZM7.93164 4.69434C8.37347 4.69434 8.73145 5.05231 8.73145 5.49414C8.73137 5.93591 8.37342 6.29395 7.93164 6.29395C7.48995 6.29384 7.13191 5.93584 7.13184 5.49414C7.13184 5.05238 7.4899 4.69444 7.93164 4.69434Z" fill="white"/>
</svg>
