<svg width="20" height="20" viewBox="0 0 20 20" fill="none" xmlns="http://www.w3.org/2000/svg">
<path d="M2.79159 8.66725L9.45825 2.96355C9.77013 2.69672 10.2299 2.69672 10.5417 2.96355L17.2084 8.66725C17.3935 8.82558 17.5 9.05693 17.5 9.30047V16.8334C17.5 17.2936 17.1269 17.6667 16.6667 17.6667H12.7083C12.2481 17.6667 11.875 17.2936 11.875 16.8334V13.0836C11.875 12.8534 11.6885 12.6669 11.4583 12.6669H8.54167C8.31155 12.6669 8.125 12.8534 8.125 13.0836V16.8334C8.125 17.2936 7.7519 17.6667 7.29167 17.6667H3.33333C2.8731 17.6667 2.5 17.2936 2.5 16.8334V9.30047C2.5 9.05693 2.60653 8.82558 2.79159 8.66725Z" fill="#5C6571"/>
</svg>
