<svg width="233" height="44" viewBox="0 0 233 44" fill="none" xmlns="http://www.w3.org/2000/svg">
<g clip-path="url(#clip0_713_18430)">
<path d="M1.03161 15.2887C0.917856 15.3456 0.908377 15.4592 1.02213 15.5255L10.9185 22.0616L13.7528 8.72424L1.03161 15.2887Z" fill="white"/>
<path d="M59.663 8.72419H57.1605C57.0278 8.72419 56.8287 8.77156 56.7149 8.83786L44.1644 15.2981C44.0507 15.355 44.0412 15.4687 44.1549 15.535L53.8901 21.9384C54.0039 22.0047 54.1935 22.0615 54.3262 22.0615H56.8287C56.9614 22.0615 56.9709 22.0047 56.8666 21.9384L46.9324 15.4023L59.7009 8.82839C59.8147 8.77156 59.8052 8.71472 59.6725 8.71472L59.663 8.72419Z" fill="white"/>
<path d="M54.2956 8.72419H36.8538L34.0195 22.0615H51.4614C51.5941 22.0615 51.6035 22.0047 51.4993 21.9384L41.5745 15.4023L54.3241 8.82839C54.4378 8.77156 54.4284 8.71472 54.2956 8.71472V8.72419Z" fill="white"/>
<path d="M65.007 8.72419H62.5045C62.3718 8.72419 62.1727 8.77156 62.0589 8.83786L49.5084 15.2981C49.3947 15.355 49.3947 15.4687 49.4989 15.535L59.2341 21.9384C59.3384 22.0047 59.5375 22.0615 59.6702 22.0615H62.1727C62.3054 22.0615 62.3244 22.0047 62.2106 21.9384L52.2764 15.4023L65.0354 8.82839C65.1492 8.77156 65.1397 8.71472 65.007 8.71472V8.72419Z" fill="white"/>
<path d="M53.521 0H12.4569C10.1629 0 8.56095 1.43983 8.18178 3.22067C7.97324 4.20581 8.35241 5.06781 9.10127 5.66459L23.8605 15.3929L53.5495 0.104198C53.6632 0.0473628 53.6538 0 53.521 0Z" fill="white"/>
<path d="M47.0076 30.6721L23.8688 15.4023L4.95765 25.1401C3.95285 25.7369 3.21347 26.6084 3.00493 27.584C2.62576 29.3649 3.6116 30.8047 5.90558 30.8047H46.9697C47.1024 30.8047 47.1214 30.7479 47.0076 30.6721Z" fill="white"/>
<path d="M46.9494 37.8808C46.7313 37.5682 46.428 37.3219 46.0488 37.1514C45.6697 36.9809 45.2052 36.8956 44.6744 36.8956C43.6032 36.8956 42.7121 37.2177 41.9822 37.8524C41.2523 38.487 40.7784 39.349 40.5414 40.4194C40.3044 41.4993 40.4087 42.3708 40.8542 43.0149C41.2997 43.6685 42.0486 43.9906 43.1292 43.9906C43.6695 43.9906 44.1719 43.9053 44.6175 43.7253C45.082 43.5454 45.4801 43.3085 45.8403 42.9865C46.2005 42.6644 46.4849 42.2855 46.7313 41.8498C46.9683 41.4235 47.1484 40.9404 47.2717 40.4194C47.3854 39.9079 47.4044 39.4248 47.357 38.9985C47.2906 38.5628 47.1579 38.1934 46.9399 37.8808H46.9494ZM45.5275 41.3572C45.3948 41.6508 45.2241 41.9161 45.0156 42.1529C44.8071 42.3897 44.5701 42.5792 44.2952 42.7118C44.0203 42.8539 43.7075 42.9202 43.3757 42.9202C43.0439 42.9202 42.7595 42.8539 42.5415 42.7118C42.333 42.5792 42.1718 42.3897 42.0676 42.1529C41.9633 41.9161 41.9064 41.6508 41.9064 41.3572C41.8969 41.0541 41.9254 40.751 42.0012 40.4289C42.0676 40.1163 42.1718 39.8132 42.3045 39.5195C42.4467 39.2354 42.6174 38.9701 42.8259 38.7428C43.0344 38.4965 43.2714 38.3165 43.5558 38.1839C43.8307 38.0418 44.134 37.9755 44.4563 37.9755C44.7786 37.9755 45.0535 38.0418 45.281 38.1839C45.4896 38.3165 45.6507 38.4965 45.755 38.7333C45.8687 38.9606 45.9256 39.2259 45.9351 39.5195C45.9446 39.8132 45.9161 40.1258 45.8498 40.4384C45.7834 40.7604 45.6792 41.073 45.537 41.3667L45.5275 41.3572Z" fill="white"/>
<path d="M13.0255 37.8808C12.8075 37.5682 12.5137 37.3219 12.125 37.1514C11.7458 36.9809 11.2908 36.8956 10.76 36.8956C9.68885 36.8956 8.7978 37.2177 8.0679 37.8524C7.338 38.487 6.86403 39.349 6.63653 40.4194C6.40903 41.4993 6.5133 42.3708 6.94935 43.0149C7.39487 43.6685 8.15321 43.9906 9.22437 43.9906C9.76468 43.9906 10.2576 43.9053 10.7126 43.7253C11.1676 43.5454 11.5752 43.2991 11.926 42.9865C12.2767 42.6644 12.58 42.2855 12.817 41.8498C13.054 41.4235 13.2246 40.9404 13.3478 40.4194C13.4616 39.9079 13.4806 39.4248 13.4332 38.9985C13.3668 38.5628 13.2341 38.1934 13.0161 37.8713L13.0255 37.8808ZM11.6037 41.3572C11.471 41.6508 11.3003 41.9161 11.0918 42.1529C10.8832 42.3897 10.6463 42.5792 10.3714 42.7118C10.0965 42.8539 9.79312 42.9202 9.44239 42.9202C9.09166 42.9202 8.82624 42.8539 8.60822 42.7118C8.39019 42.5792 8.23853 42.3897 8.13425 42.1529C8.03946 41.9161 7.98259 41.6508 7.97311 41.3572C7.97311 41.0541 7.99207 40.751 8.0679 40.4289C8.13425 40.1163 8.23853 39.8132 8.37124 39.5195C8.51342 39.2354 8.68405 38.9701 8.89259 38.7428C9.09166 38.4965 9.33812 38.3165 9.61302 38.1839C9.88792 38.0418 10.1818 37.9755 10.523 37.9755C10.8643 37.9755 11.1107 38.0418 11.3288 38.1839C11.5468 38.3165 11.7079 38.4965 11.8122 38.7333C11.926 38.9606 11.9828 39.2259 11.9923 39.5195C12.0018 39.8132 11.9734 40.1258 11.8975 40.4384C11.8312 40.7604 11.7364 41.073 11.5942 41.3667L11.6037 41.3572Z" fill="white"/>
<path d="M52.6673 37.123C52.6673 37.123 52.0417 36.9714 52.0322 36.9714C51.6815 36.8956 51.3971 36.8956 51.1032 36.8956C50.7809 36.8956 50.4681 36.9335 50.1553 37.0188C49.852 37.0946 49.5581 37.2177 49.2927 37.3787C49.0178 37.5492 48.7808 37.7576 48.6007 38.0323C48.4016 38.307 48.2689 38.6196 48.1836 38.9891C48.1173 39.3017 48.1078 39.5574 48.1741 39.7753C48.231 39.9932 48.3353 40.1826 48.468 40.3342C48.6102 40.4763 48.7713 40.5994 48.942 40.6941C49.1126 40.7888 49.3306 40.893 49.5866 40.9972C49.9752 41.1583 50.2501 41.3098 50.4207 41.433C50.5819 41.5656 50.6387 41.774 50.5819 42.0203C50.5155 42.3045 50.3449 42.5318 50.051 42.6834C49.4728 42.977 48.8093 42.9581 48.2121 42.7497C48.032 42.6834 47.8613 42.6076 47.7002 42.5223C47.6717 42.5034 47.6433 42.5223 47.6243 42.5507C47.6243 42.5507 47.2736 43.6306 47.2641 43.6685C47.2547 43.7064 47.2736 43.7348 47.3115 43.7443C47.3589 43.7538 47.5011 43.7916 47.6717 43.8295C48.1078 43.9243 48.5344 43.9906 48.9988 43.9906C49.3685 43.9906 49.7098 43.9527 50.051 43.8769C50.3828 43.8011 50.6861 43.678 50.9705 43.5169C51.2454 43.3464 51.4824 43.1286 51.6815 42.8539C51.8805 42.5886 52.0132 42.276 52.108 41.9161C52.1744 41.594 52.1839 41.3193 52.108 41.092C52.0512 40.8646 51.9469 40.6846 51.7952 40.5236C51.653 40.3721 51.4824 40.2584 51.3118 40.1637C51.1411 40.0689 50.9136 39.9647 50.6482 39.8605C50.2785 39.709 50.0131 39.5764 49.852 39.4437C49.6908 39.3206 49.6339 39.1501 49.6908 38.9228C49.7287 38.7428 49.7951 38.5912 49.8899 38.4681C49.9847 38.3449 50.089 38.2407 50.2122 38.1744C50.3354 38.0986 50.4681 38.0513 50.6008 38.0134C50.999 37.9092 51.4255 37.9566 51.8142 38.0797L52.3071 38.2407C52.3071 38.2407 52.3734 38.2407 52.3829 38.2028L52.7242 37.1988C52.7242 37.1988 52.7147 37.1324 52.6863 37.123H52.6673Z" fill="white"/>
<path d="M40.1173 38.0891C40.0225 37.8144 39.8613 37.606 39.6244 37.445C39.3874 37.284 39.1125 37.1798 38.7902 37.1135C38.4584 37.0472 38.0982 37.0093 37.7096 37.0093H36.0317C36.0317 37.0093 35.9654 37.0282 35.9559 37.0661L34.4961 43.8106C34.4961 43.8106 34.5056 43.8769 34.5435 43.8769H35.7853C35.7853 43.8769 35.8516 43.8485 35.8611 43.8106L36.4014 41.3572C37.3494 41.3572 38.1077 41.1867 38.4869 41.0256C38.667 40.9499 38.8376 40.8646 38.9987 40.7699C39.2736 40.5994 39.5106 40.372 39.7097 40.0973C39.8993 39.8132 40.0415 39.4721 40.1173 39.0838C40.2121 38.6954 40.2121 38.3733 40.1173 38.0986V38.0891ZM38.667 39.1595C38.5817 39.5384 38.411 39.7942 38.1361 39.9458C38.0224 40.0026 37.5295 40.2205 36.6289 40.2205L37.0934 38.0891H37.5863C37.975 38.0891 38.2688 38.1744 38.4774 38.3354C38.6764 38.5154 38.7428 38.7806 38.667 39.1501V39.1595Z" fill="white"/>
<path d="M58.7253 38.0891C58.7253 38.0891 58.7917 38.0607 58.8011 38.0322L59.0097 37.0755C59.0097 37.0755 59.0002 37.0187 58.9623 37.0187H53.7866C53.7866 37.0187 53.7108 37.0376 53.7108 37.0755C53.7108 37.0755 53.5212 38.0038 53.5117 38.0322C53.5117 38.0607 53.5212 38.0891 53.5591 38.0891H55.3981C55.3981 38.0891 55.455 38.1175 55.436 38.1459L54.2132 43.8105C54.2132 43.8105 54.2227 43.8768 54.2606 43.8768H55.5118C55.5118 43.8768 55.5782 43.8484 55.5877 43.8105L56.8105 38.1459C56.8105 38.1459 56.8484 38.0891 56.8863 38.0891H58.7348H58.7253Z" fill="white"/>
<path d="M19.3571 37.8428C19.2339 37.587 19.0443 37.407 18.7694 37.2934C18.504 37.1702 18.2007 37.1039 17.8594 37.066C17.5182 37.0376 17.0821 37.0187 16.5513 37.0187H15.1294C15.1294 37.0187 15.063 37.0376 15.0536 37.0755L13.5938 43.82C13.5938 43.82 13.6127 43.8863 13.6411 43.8863H14.8924C14.8924 43.8863 14.9588 43.8579 14.9588 43.82L15.5654 41.0256H16.011C16.2859 41.0256 16.4849 41.0824 16.5892 41.1771C16.6935 41.2813 16.7693 41.4613 16.8262 41.736L17.1769 43.8294C17.1769 43.8294 17.2148 43.8957 17.2527 43.8957H18.6557C18.6557 43.8957 18.7125 43.8673 18.7125 43.8294L18.2007 41.2055C18.1627 41.0066 18.0869 40.8456 18.0016 40.713C17.9163 40.5804 17.7931 40.5046 17.6224 40.4856C18.068 40.4288 18.4566 40.2393 18.7789 39.9552C19.1012 39.652 19.3003 39.3016 19.3951 38.8942C19.4898 38.4585 19.4709 38.1175 19.3571 37.8617V37.8428ZM17.9352 38.989C17.8973 39.1879 17.812 39.3584 17.7077 39.491C17.594 39.6142 17.4613 39.7089 17.3096 39.7752C17.1485 39.8415 16.9873 39.8889 16.8167 39.9078C16.6555 39.9267 16.466 39.9362 16.2669 39.9362H15.8024L16.2005 38.0891H16.6555C16.8736 38.0891 17.0537 38.0891 17.2053 38.1175C17.3665 38.1364 17.5087 38.1838 17.6319 38.2312C17.7551 38.2975 17.8594 38.3827 17.9163 38.5059C17.9637 38.6195 17.9826 38.79 17.9352 38.9795V38.989Z" fill="white"/>
<path d="M25.451 37.0755C25.451 37.0755 25.4321 37.0187 25.4036 37.0187H21.4224C21.4224 37.0187 21.356 37.0376 21.3465 37.0755L19.8867 43.82C19.8867 43.82 19.9057 43.8863 19.9341 43.8863H23.9438C23.9438 43.8863 24.0007 43.8579 24.0197 43.82L24.2282 42.8632C24.2282 42.8632 24.2187 42.7969 24.1808 42.7969H21.5456L21.9627 40.8645H24.3514C24.3514 40.8645 24.4178 40.8361 24.4178 40.8077L24.6263 39.851C24.6263 39.851 24.6169 39.7847 24.5789 39.7847H22.1902L22.5599 38.0891H25.1667C25.1667 38.0891 25.233 38.0607 25.2425 38.0322L25.451 37.0755Z" fill="white"/>
<path d="M7.18527 37.0188H5.37474C5.37474 37.0188 5.2989 37.0377 5.27046 37.0566L2.19919 39.9647L2.82482 37.0661C2.82482 37.0661 2.80586 37.0093 2.77742 37.0093H1.53564C1.53564 37.0093 1.46928 37.0282 1.4598 37.0661L0 43.8106C0 43.8106 0.0189585 43.8769 0.0473963 43.8769H1.28918C1.28918 43.8769 1.35553 43.8485 1.36501 43.8106L2.04752 40.6941L3.82014 43.82C3.82014 43.82 3.87701 43.8769 3.90545 43.8769H5.5738C5.5738 43.8769 5.6212 43.8579 5.61172 43.82L3.63055 40.4194L7.20423 37.0566C7.20423 37.0566 7.22319 37.0188 7.18527 37.0188Z" fill="white"/>
<path d="M30.3797 37.0755C30.3797 37.0755 30.3418 37.0187 30.3038 37.0187H28.9578C28.9578 37.0187 28.882 37.0376 28.8725 37.066L24.9102 43.82C24.9102 43.82 24.9102 43.8768 24.9481 43.8768H26.1709C26.1709 43.8768 26.2467 43.8579 26.2657 43.82L27.3558 41.8686C27.3558 41.8686 27.4127 41.8118 27.4506 41.8118H29.6972C29.6972 41.8118 29.7541 41.8402 29.7541 41.8686L30.0005 43.801C30.0005 43.8389 30.029 43.8673 30.0669 43.8673H31.3845C31.3845 43.8673 31.4508 43.8389 31.4414 43.801L30.3892 37.066L30.3797 37.0755ZM28.0478 40.7509C28.0478 40.7509 28.0004 40.7224 28.0099 40.694L29.2706 38.4396C29.2706 38.4396 29.318 38.4111 29.3275 38.4396L29.6024 40.6846C29.6024 40.6846 29.5929 40.7414 29.555 40.7414H28.0478V40.7509Z" fill="white"/>
<path d="M92.3165 5.69299V10.6661H96.4115V12.9963H92.3165V20.3944H88.2214V18.121C87.6527 18.3862 86.9512 18.6136 86.1171 18.8219C85.2734 19.0209 84.4013 19.1251 83.4913 19.1251H71.5664V16.7948H75.3865V11.3102H79.2351V16.7948H83.6335C84.6193 16.7948 85.5104 16.738 86.2877 16.6148C87.065 16.4917 87.7096 16.3307 88.212 16.1317V5.69299H92.307H92.3165ZM72.5143 6.2424H86.136V11.5186C86.136 12.2669 86.0223 13.0626 85.8042 13.9152C85.5862 14.7677 85.3303 15.336 85.0459 15.6392H81.5007C81.7187 15.1182 81.8704 14.5025 81.9367 13.8015C82.0031 13.1005 82.041 12.3806 82.041 11.6323V8.54423H72.5143V6.2424ZM89.7097 21.8532C91.0273 22.9615 91.6814 24.3255 91.6814 25.9453C91.6814 27.5651 91.0273 28.9292 89.7097 30.0564C88.3921 31.1742 86.809 31.7425 84.9511 31.7425C83.0932 31.7425 81.5291 31.1836 80.221 30.0564C78.9033 28.9386 78.2493 27.5651 78.2493 25.9453C78.2493 24.3255 78.9033 22.9615 80.221 21.8532C81.5386 20.7449 83.1121 20.186 84.9511 20.186C86.7901 20.186 88.4016 20.7449 89.7097 21.8532ZM83.1121 23.5488C82.6003 24.2592 82.3348 25.0549 82.3348 25.9453C82.3348 26.8357 82.5908 27.6504 83.1121 28.3419C83.624 29.0334 84.2402 29.3744 84.9511 29.3744C85.6621 29.3744 86.2972 29.0334 86.8185 28.3419C87.3304 27.6598 87.5958 26.8547 87.5958 25.9453C87.5958 25.0359 87.3399 24.2592 86.8185 23.5488C86.3066 22.8383 85.681 22.4878 84.9511 22.4878C84.2212 22.4878 83.6335 22.8383 83.1121 23.5488Z" fill="white"/>
<path d="M99.751 10.7892V8.48742H104.936V5.48462H109.031V8.48742H114.216V10.7892H111.458C112.008 11.2913 112.434 11.8881 112.766 12.5606C113.088 13.2332 113.249 13.9626 113.249 14.7298C113.249 15.9613 112.851 17.0695 112.065 18.0642C111.278 19.0588 110.263 19.7503 109.031 20.1576V22.0047H111.704C112.595 22.0047 113.401 21.9479 114.131 21.8342C114.861 21.7206 115.477 21.588 115.979 21.4269V5.63618H120.103L120.075 12.4564L124.17 12.428V14.7582H120.075L120.131 30.729H115.979V23.4256C115.411 23.6909 114.738 23.8993 113.96 24.0603C113.183 24.2213 112.368 24.3066 111.515 24.3066H99.5898V21.9763L104.927 22.0047V20.1576C103.694 19.7503 102.68 19.0588 101.874 18.0642C101.078 17.079 100.68 15.9613 100.68 14.7298C100.68 13.9626 100.841 13.2426 101.163 12.5606C101.486 11.8786 101.922 11.2913 102.472 10.7892H99.7415H99.751ZM105.315 12.2385C104.841 12.949 104.604 13.7731 104.604 14.7204C104.604 15.6676 104.841 16.4728 105.315 17.1927C105.789 17.9126 106.339 18.2726 106.965 18.2726C107.59 18.2726 108.169 17.9126 108.633 17.1927C109.098 16.4728 109.335 15.6487 109.335 14.7204C109.335 13.792 109.098 12.9395 108.633 12.2385C108.169 11.5281 107.609 11.1776 106.965 11.1776C106.32 11.1776 105.789 11.5281 105.315 12.2385Z" fill="white"/>
<path d="M150.197 18.3673V20.6691H141.761V25.1591H137.666V20.6691H126.992V18.3673H150.197ZM147.524 5.91089V15.8571H132.756C131.902 15.8571 131.22 15.6013 130.708 15.0993C130.196 14.5972 129.931 13.9341 129.931 13.129V5.91089H147.524ZM147.733 30.729H133.353C132.547 30.729 131.874 30.4827 131.334 29.9996C130.793 29.5165 130.528 28.8439 130.528 28.0009V23.3309H134.623V28.4271H147.723V30.729H147.733ZM143.429 13.5458V8.24114H134.026V13.5458H143.429Z" fill="white"/>
<path d="M177.918 19.7597V22.0615H168.239V30.7005H164.144V22.0615H154.438V19.7597H177.918ZM171.699 7.22752C173.216 8.48737 173.974 10.0124 173.974 11.7933C173.974 13.5741 173.216 15.0897 171.699 16.3401C170.183 17.5905 168.344 18.2157 166.182 18.2157C164.021 18.2157 162.21 17.5905 160.694 16.3401C159.177 15.0897 158.419 13.5741 158.419 11.7933C158.419 10.0124 159.177 8.49684 160.694 7.22752C162.21 5.9582 164.04 5.33301 166.182 5.33301C168.325 5.33301 170.183 5.96767 171.699 7.22752ZM163.557 8.86627C162.855 9.66196 162.514 10.6376 162.514 11.7933C162.514 12.9489 162.865 13.8962 163.557 14.7014C164.249 15.5065 165.13 15.9138 166.182 15.9138C167.234 15.9138 168.116 15.5065 168.818 14.7014C169.528 13.8962 169.879 12.9205 169.879 11.7933C169.879 10.6661 169.528 9.66196 168.818 8.86627C168.107 8.07057 167.225 7.67273 166.182 7.67273C165.14 7.67273 164.258 8.07057 163.557 8.86627Z" fill="white"/>
<path d="M198.942 30.7289H195.094V21.0859L193.397 22.5067C192.241 22.3457 191.112 21.7489 190.013 20.707C188.913 19.665 188.25 18.6325 188.022 17.6C187.823 18.6325 187.16 19.665 186.051 20.688C184.942 21.7205 183.795 22.3268 182.619 22.5067L180.742 20.9343C182.278 20.527 183.539 19.485 184.515 17.7989C185.491 16.1128 185.984 14.0856 185.984 11.7175V10.8081H182.401V8.4779H185.984V5.4751H190.022V8.4779H193.331V10.8081H190.022V11.7175C190.022 14.0193 190.506 16.0086 191.463 17.6757C192.421 19.3429 193.634 20.4038 195.084 20.8775V15.4781H191.653V13.1479H195.084V5.62666H198.933V30.7289H198.942ZM204.526 5.63613V30.7384H200.677V5.63613H204.526Z" fill="white"/>
<path d="M212.59 5.78772H230.06V11.3007C230.06 11.9922 229.965 12.7311 229.776 13.5457C229.586 14.3509 229.349 14.9382 229.065 15.3076H233.008V17.6095H223.358V21.6448H230.003V30.7384H225.908V23.9466H212.505V21.6448H219.273V17.6095H209.812V15.3076H225.491C225.69 14.7866 225.823 14.1804 225.889 13.4889C225.946 12.8069 225.984 12.1059 225.984 11.3955V8.08955H212.609V5.78772H212.59Z" fill="white"/>
</g>
<defs>
<clipPath id="clip0_713_18430">
<rect width="233" height="44" fill="white"/>
</clipPath>
</defs>
</svg>
