<svg width="40" height="40" viewBox="0 0 40 40" fill="none" xmlns="http://www.w3.org/2000/svg">
<path d="M21.668 4.3335C23.3248 4.3335 24.668 5.67664 24.668 7.3335V9.3335H33.667C35.3238 9.3335 36.667 10.6766 36.667 12.3335V30.3335C36.667 31.9903 35.3238 33.3335 33.667 33.3335H6.33594C4.67923 33.3333 3.33594 31.9902 3.33594 30.3335V12.3335C3.33594 10.6768 4.67923 9.33367 6.33594 9.3335H15.335V7.3335C15.335 5.67664 16.6781 4.3335 18.335 4.3335H21.668ZM6.33594 12.0005C6.15199 12.0007 6.00293 12.1495 6.00293 12.3335V30.3335C6.00293 30.5175 6.15199 30.6663 6.33594 30.6665H33.667C33.8511 30.6665 34 30.5176 34 30.3335V12.3335C34 12.1494 33.8511 12.0005 33.667 12.0005H24.668V14.0005C24.6678 15.6572 23.3247 17.0005 21.668 17.0005H18.335C16.6782 17.0005 15.3351 15.6572 15.335 14.0005V12.0005H6.33594ZM15.6738 23.9995C17.5144 23.9997 19.0064 25.492 19.0068 27.3325V27.9995H9.00684V27.3325C9.00725 25.492 10.4993 23.9997 12.3398 23.9995H15.6738ZM30.002 24.3335C30.7381 24.3337 31.3348 24.9304 31.335 25.6665C31.335 26.4028 30.7382 27.0003 30.002 27.0005H21.668C20.9317 27.0003 20.335 26.4028 20.335 25.6665C20.3351 24.9304 20.9318 24.3337 21.668 24.3335H30.002ZM14.0889 18.3335C15.3315 18.3335 16.3389 19.3409 16.3389 20.5835C16.3388 21.826 15.3314 22.8335 14.0889 22.8335C12.8463 22.8335 11.839 21.826 11.8389 20.5835C11.8389 19.3409 12.8462 18.3335 14.0889 18.3335ZM30.002 19.3335C30.7381 19.3337 31.3348 19.9304 31.335 20.6665C31.335 21.4028 30.7382 22.0003 30.002 22.0005H21.668C20.9317 22.0003 20.335 21.4028 20.335 20.6665C20.3351 19.9304 20.9318 19.3337 21.668 19.3335H30.002ZM18.335 7.00049C18.1509 7.00049 18.002 7.1494 18.002 7.3335V14.0005C18.0021 14.1844 18.151 14.3335 18.335 14.3335H21.668C21.852 14.3335 22.0018 14.1844 22.002 14.0005V7.3335C22.002 7.1494 21.8521 7.00049 21.668 7.00049H18.335Z" fill="black"/>
</svg>
