<svg width="40" height="40" viewBox="0 0 40 40" fill="none" xmlns="http://www.w3.org/2000/svg">
<path d="M33.75 2.5H6.25C4.17893 2.5 2.5 4.17893 2.5 6.25V33.75C2.5 35.8211 4.17893 37.5 6.25 37.5H33.75C35.8211 37.5 37.5 35.8211 37.5 33.75V6.25C37.5 4.17893 35.8211 2.5 33.75 2.5Z" fill="#FABE00"/>
<path d="M25 2.5H15C14.6685 2.5 14.3505 2.6317 14.1161 2.86612C13.8817 3.10054 13.75 3.41848 13.75 3.75V16.25C13.7506 16.4631 13.8057 16.6725 13.9101 16.8582C14.0144 17.044 14.1645 17.2001 14.3461 17.3115C14.5277 17.423 14.7348 17.4862 14.9477 17.4951C15.1606 17.504 15.3722 17.4584 15.5625 17.3625L20 15.15L24.4375 17.3625C24.6117 17.4517 24.8043 17.4988 25 17.5C25.234 17.5008 25.4636 17.4358 25.6625 17.3125C25.8426 17.1999 25.9911 17.0433 26.0939 16.8574C26.1967 16.6715 26.2504 16.4624 26.25 16.25V3.75C26.25 3.41848 26.1183 3.10054 25.8839 2.86612C25.6495 2.6317 25.3315 2.5 25 2.5Z" fill="#F08300"/>
<path d="M27.5 32.5H23.75C23.4185 32.5 23.1005 32.3683 22.8661 32.1339C22.6317 31.8995 22.5 31.5815 22.5 31.25C22.5 30.9185 22.6317 30.6005 22.8661 30.3661C23.1005 30.1317 23.4185 30 23.75 30H27.5C27.8315 30 28.1495 30.1317 28.3839 30.3661C28.6183 30.6005 28.75 30.9185 28.75 31.25C28.75 31.5815 28.6183 31.8995 28.3839 32.1339C28.1495 32.3683 27.8315 32.5 27.5 32.5Z" fill="#232A33"/>
<path d="M31.25 27.5H23.75C23.4185 27.5 23.1005 27.3683 22.8661 27.1339C22.6317 26.8995 22.5 26.5815 22.5 26.25C22.5 25.9185 22.6317 25.6005 22.8661 25.3661C23.1005 25.1317 23.4185 25 23.75 25H31.25C31.5815 25 31.8995 25.1317 32.1339 25.3661C32.3683 25.6005 32.5 25.9185 32.5 26.25C32.5 26.5815 32.3683 26.8995 32.1339 27.1339C31.8995 27.3683 31.5815 27.5 31.25 27.5Z" fill="#232A33"/>
</svg>
