<svg width="40" height="40" viewBox="0 0 40 40" fill="none" xmlns="http://www.w3.org/2000/svg">
<path d="M20.0029 3.33337C29.2077 3.33337 36.6699 10.7956 36.6699 20.0004C36.6697 29.2049 29.2076 36.6664 20.0029 36.6664C10.7983 36.6664 3.33613 29.2049 3.33594 20.0004C3.33594 10.7956 10.7982 3.33337 20.0029 3.33337ZM14.5742 26.3334C14.9168 27.7154 15.3636 28.957 15.8906 30.0111C17.177 32.5836 18.708 33.6674 20.002 33.6674C21.2958 33.6672 22.8261 32.5833 24.1123 30.0111C24.6393 28.9571 25.0861 27.7153 25.4287 26.3334H14.5742ZM28.167 26.3334C27.768 28.143 27.2027 29.7922 26.4971 31.2035C26.2042 31.7891 25.8755 32.3484 25.5176 32.8705C28.5374 31.5749 31.0097 29.2488 32.4912 26.3334H28.167ZM7.51465 26.3334C8.99533 29.2472 11.4658 31.5725 14.4834 32.8685C14.1261 32.3471 13.7983 31.7882 13.5059 31.2035C12.8002 29.7922 12.2349 28.143 11.8359 26.3334H7.51465ZM28.6172 16.3334C28.7588 17.5152 28.835 18.7431 28.835 20.0004C28.835 21.2576 28.7588 22.4855 28.6172 23.6674H33.335C33.3953 23.6674 33.4545 23.6723 33.5127 23.6801C33.8314 22.5074 34.0029 21.2739 34.0029 20.0004C34.0029 18.7316 33.833 17.5021 33.5166 16.3334H28.6172ZM6.48926 16.3334C6.17291 17.5021 6.00293 18.7316 6.00293 20.0004C6.00296 21.2735 6.17371 22.5068 6.49219 23.6791C6.54973 23.6715 6.60836 23.6674 6.66797 23.6674H11.3867C11.2451 22.4855 11.168 21.2576 11.168 20.0004C11.168 18.7431 11.2451 17.5153 11.3867 16.3334H6.48926ZM14.0723 16.3334C13.9185 17.4972 13.835 18.7261 13.835 20.0004C13.835 21.2747 13.9185 22.5036 14.0723 23.6674H25.9307C26.0844 22.5035 26.168 21.2747 26.168 20.0004C26.168 18.726 26.0844 17.4972 25.9307 16.3334H14.0723ZM25.5166 7.1283C25.875 7.65089 26.2039 8.21097 26.4971 8.79724C27.2027 10.2085 27.768 11.8577 28.167 13.6674H32.4922C31.0106 10.7511 28.5373 8.42392 25.5166 7.1283ZM14.4844 7.12927C11.4657 8.42528 8.99456 10.7525 7.51367 13.6674H11.8359C12.2349 11.8577 12.8002 10.2085 13.5059 8.79724C13.7987 8.21157 14.1264 7.65141 14.4844 7.12927ZM20.002 6.33337C18.708 6.33337 17.177 7.41704 15.8906 9.98962C15.3636 11.0437 14.9168 12.2853 14.5742 13.6674H25.4287C25.0861 12.2854 24.6393 11.0437 24.1123 9.98962C22.8261 7.41735 21.2958 6.33355 20.002 6.33337Z" fill="black"/>
</svg>
