<svg width="40" height="40" viewBox="0 0 40 40" fill="none" xmlns="http://www.w3.org/2000/svg">
<path d="M33.75 6.25H6.25C4.17893 6.25 2.5 7.92893 2.5 10V30C2.5 32.0711 4.17893 33.75 6.25 33.75H33.75C35.8211 33.75 37.5 32.0711 37.5 30V10C37.5 7.92893 35.8211 6.25 33.75 6.25Z" fill="#F08300"/>
<path d="M36.4491 7.4C36.0995 7.03663 35.6801 6.7475 35.2162 6.54991C34.7523 6.35231 34.2533 6.25031 33.7491 6.25H6.24906C5.74482 6.25031 5.24581 6.35231 4.78189 6.54991C4.31797 6.7475 3.89867 7.03663 3.54906 7.4C3.43398 7.52053 3.34416 7.66285 3.28488 7.81859C3.2256 7.97434 3.19807 8.14037 3.20389 8.30691C3.20971 8.47346 3.24878 8.63715 3.31879 8.78838C3.3888 8.93961 3.48834 9.07531 3.61156 9.1875L17.4991 21.875C18.1911 22.511 19.0967 22.8639 20.0366 22.8639C20.9764 22.8639 21.882 22.511 22.5741 21.875L36.3866 9.1875C36.5098 9.07531 36.6093 8.93961 36.6793 8.78838C36.7493 8.63715 36.7884 8.47346 36.7942 8.30691C36.8001 8.14037 36.7725 7.97434 36.7132 7.81859C36.654 7.66285 36.5641 7.52053 36.4491 7.4Z" fill="#FABE00"/>
</svg>
