<svg width="40" height="40" viewBox="0 0 40 40" fill="none" xmlns="http://www.w3.org/2000/svg">
<path d="M28.75 2.5H11.25C9.17893 2.5 7.5 4.17893 7.5 6.25V33.75C7.5 35.8211 9.17893 37.5 11.25 37.5H28.75C30.8211 37.5 32.5 35.8211 32.5 33.75V6.25C32.5 4.17893 30.8211 2.5 28.75 2.5Z" fill="#424242"/>
<path d="M22.5 10H17.5C17.1685 10 16.8505 9.8683 16.6161 9.63388C16.3817 9.39946 16.25 9.08152 16.25 8.75C16.25 8.41848 16.3817 8.10054 16.6161 7.86612C16.8505 7.6317 17.1685 7.5 17.5 7.5H22.5C22.8315 7.5 23.1495 7.6317 23.3839 7.86612C23.6183 8.10054 23.75 8.41848 23.75 8.75C23.75 9.08152 23.6183 9.39946 23.3839 9.63388C23.1495 9.8683 22.8315 10 22.5 10Z" fill="#616161"/>
</svg>
