<svg width="278" height="201" viewBox="0 0 278 201" fill="none" xmlns="http://www.w3.org/2000/svg">
<path opacity="0.3" d="M250.796 26.2238C265.279 40.7068 265.279 64.1884 250.796 78.6714L211.682 117.785C197.199 132.268 173.718 132.268 159.235 117.785C144.752 103.302 144.752 79.8203 159.235 65.3373L198.348 26.2238C212.831 11.7408 236.313 11.7408 250.796 26.2238Z" fill="#FFE2DF"/>
<path opacity="0.3" d="M250.794 168.071C236.311 182.554 212.83 182.554 198.346 168.071L159.233 128.957C144.75 114.474 144.75 90.9928 159.233 76.5098C173.716 62.0267 197.198 62.0267 211.681 76.5097L250.794 115.623C265.277 130.106 265.277 153.588 250.794 168.071Z" fill="#FFEFC5"/>
<path opacity="0.3" d="M117.784 32.9283C132.267 47.4113 132.267 70.8929 117.784 85.3759L78.6705 124.489C64.1875 138.972 40.7059 138.972 26.2229 124.489C11.7399 110.006 11.7399 86.5248 26.2229 72.0418L65.3364 32.9283C79.8194 18.4453 103.301 18.4453 117.784 32.9283Z" fill="#FFE2DF"/>
<path opacity="0.3" d="M117.782 174.776C103.299 189.259 79.8178 189.259 65.3348 174.776L26.2213 135.662C11.7383 121.179 11.7383 97.6977 26.2213 83.2147C40.7043 68.7317 64.1859 68.7317 78.6689 83.2147L117.782 122.328C132.265 136.811 132.265 160.293 117.782 174.776Z" fill="#FFEFC5"/>
</svg>
