<svg width="40" height="40" viewBox="0 0 40 40" fill="none" xmlns="http://www.w3.org/2000/svg">
<path d="M14.4834 5.10547C14.7947 4.97386 15.1446 4.96471 15.4619 5.08105L24.9678 8.56738L33.1523 5.10547C33.5641 4.93134 34.0356 4.97567 34.4082 5.22266C34.7808 5.46965 35.0049 5.88693 35.0049 6.33398V29.667C35.0049 30.1871 34.7027 30.66 34.2305 30.8779L25.5615 34.8779C25.2291 35.0313 24.8478 35.0411 24.5078 34.9053L15.04 31.1182L7.36523 34.6592C6.26082 35.1687 4.99987 34.3618 5 33.1455L5.00293 10C5.00299 9.46447 5.32323 8.98117 5.81641 8.77246L14.4834 5.10547ZM16.332 28.7617L23.665 31.6953V10.9297L16.332 8.24121V28.7617ZM26.332 10.8848V31.585L32.3389 28.8135V8.34473L26.332 10.8848ZM7.66895 10.8838L7.66699 31.583L13.665 28.8154V8.34668L7.66895 10.8838Z" fill="black"/>
</svg>
