<svg width="40" height="40" viewBox="0 0 40 40" fill="none" xmlns="http://www.w3.org/2000/svg">
<path d="M17.9785 30.268C22.5051 26.415 29.1589 26.415 33.6855 30.268C34.5178 30.9766 34.9971 32.0148 34.9971 33.1079V35.6675H16.667V33.1079C16.667 32.0148 17.1462 30.9766 17.9785 30.268ZM18.2979 5.00046C18.6515 4.99116 18.9954 5.12307 19.252 5.36667L26.2451 12.0112C26.108 12.0039 25.97 11.9995 25.8311 11.9995C24.8125 11.9995 23.8404 12.1993 22.9512 12.56L18.3828 8.22019L7.66699 19.5317V33.0005H13.665C13.7825 33.0005 13.8964 33.0169 14.0049 33.0454C14.0047 33.0657 14.0039 33.0865 14.0039 33.1069V35.6216C13.8957 35.6499 13.7822 35.6665 13.665 35.6665H6.33301C5.59678 35.6663 5 35.0697 5 34.3335V19.0005C5.00012 18.6596 5.13084 18.331 5.36523 18.0835L17.3652 5.41648C17.6085 5.1598 17.9443 5.00987 18.2979 5.00046ZM31.957 32.2983C28.4267 29.2933 23.2373 29.2933 19.707 32.2983C19.4971 32.477 19.3663 32.7299 19.3389 33.0014H32.3252C32.2978 32.7299 32.1669 32.477 31.957 32.2983ZM26.0703 14.6723C28.7217 14.796 30.833 16.9855 30.833 19.6675C30.8329 22.4287 28.5943 24.6675 25.833 24.6675C23.0718 24.6673 20.8332 22.4286 20.833 19.6675C20.833 17.1172 22.7428 15.0134 25.21 14.7065C25.2178 14.7055 25.2256 14.7045 25.2334 14.7036C25.3165 14.6937 25.4001 14.686 25.4844 14.6801C25.5 14.679 25.5156 14.6772 25.5312 14.6762C25.6009 14.6721 25.6709 14.6707 25.7412 14.6694C25.7711 14.6688 25.801 14.6665 25.8311 14.6665C25.9113 14.6665 25.991 14.6686 26.0703 14.6723ZM25.833 17.3335C24.5445 17.3336 23.5 18.3789 23.5 19.6675C23.5001 20.9559 24.5446 22.0003 25.833 22.0005C27.1216 22.0005 28.1668 20.956 28.167 19.6675C28.167 18.3788 27.1217 17.3335 25.833 17.3335Z" fill="black"/>
</svg>
