<svg width="258" height="201" viewBox="0 0 258 201" fill="none" xmlns="http://www.w3.org/2000/svg">
<path opacity="0.3" d="M26.2238 26.2238C11.7408 40.7068 11.7408 64.1884 26.2238 78.6714L65.3373 117.785C79.8203 132.268 103.302 132.268 117.785 117.785C132.268 103.302 132.268 79.8203 117.785 65.3373L78.6714 26.2238C64.1884 11.7408 40.7068 11.7408 26.2238 26.2238Z" fill="#FFE2DF"/>
<path opacity="0.3" d="M26.2254 168.071C40.7084 182.554 64.19 182.554 78.673 168.071L117.787 128.957C132.27 114.474 132.27 90.9928 117.787 76.5098C103.304 62.0267 79.8219 62.0267 65.3389 76.5097L26.2254 115.623C11.7424 130.106 11.7424 153.588 26.2254 168.071Z" fill="#FFEFC5"/>
<path opacity="0.3" d="M140.204 32.9283C125.721 47.4113 125.721 70.8929 140.204 85.3759L179.318 124.489C193.801 138.972 217.282 138.972 231.765 124.489C246.248 110.006 246.248 86.5248 231.765 72.0418L192.652 32.9283C178.169 18.4453 154.687 18.4453 140.204 32.9283Z" fill="#FFE2DF"/>
<path opacity="0.3" d="M140.206 174.776C154.689 189.259 178.17 189.259 192.654 174.776L231.767 135.662C246.25 121.179 246.25 97.6977 231.767 83.2147C217.284 68.7317 193.802 68.7317 179.319 83.2147L140.206 122.328C125.723 136.811 125.723 160.293 140.206 174.776Z" fill="#FFEFC5"/>
</svg>
