<svg width="40" height="40" viewBox="0 0 40 40" fill="none" xmlns="http://www.w3.org/2000/svg">
<path d="M35.9625 8.975C35.6119 8.51555 35.1598 8.14336 34.6416 7.88749C34.1233 7.63163 33.553 7.49901 32.975 7.5H10.6625L10.4375 6.5875C10.2341 5.77681 9.76573 5.0573 9.10671 4.54322C8.44769 4.02913 7.63582 3.74995 6.8 3.75H3.75C3.41848 3.75 3.10054 3.8817 2.86612 4.11612C2.6317 4.35054 2.5 4.66848 2.5 5C2.5 5.33152 2.6317 5.64946 2.86612 5.88388C3.10054 6.1183 3.41848 6.25 3.75 6.25H6.8C7.08386 6.24102 7.36233 6.32897 7.58953 6.49937C7.81674 6.66978 7.97914 6.91247 8.05 7.1875L12.1 23.4375C12.3065 24.2374 12.7713 24.9466 13.4223 25.4552C14.0733 25.9638 14.8739 26.2432 15.7 26.25H30.5875C31.4216 26.2508 32.2322 25.9734 32.891 25.4617C33.5498 24.9501 34.0192 24.2334 34.225 23.425L36.5875 12.2375C36.7409 11.6822 36.7643 11.0991 36.656 10.5333C36.5476 9.96748 36.3103 9.43426 35.9625 8.975Z" fill="#E72410"/>
<path d="M16.875 36.25C19.2912 36.25 21.25 34.2912 21.25 31.875C21.25 29.4588 19.2912 27.5 16.875 27.5C14.4588 27.5 12.5 29.4588 12.5 31.875C12.5 34.2912 14.4588 36.25 16.875 36.25Z" fill="#424242"/>
<path d="M30 36.25C32.4162 36.25 34.375 34.2912 34.375 31.875C34.375 29.4588 32.4162 27.5 30 27.5C27.5838 27.5 25.625 29.4588 25.625 31.875C25.625 34.2912 27.5838 36.25 30 36.25Z" fill="#424242"/>
</svg>
